<svg id="Layer_1" data-name="Layer 1" xmlns="http://www.w3.org/2000/svg" viewBox="0 0 400 400"><path d="M0,200V400H192.5l-6-5.2a194.11,194.11,0,0,1-25.4-27.2c-6.3-8.4-17-28.9-19.5-37.4-1.4-4.8-1.4-5.6,0-8.5a14.15,14.15,0,0,1,4.2-4.8,9.71,9.71,0,0,0,3.8-4,142.91,142.91,0,0,0,6.9-17.4c2.8-8,2.8-8,4.9-43,.3-4.8.1-5.2-8-15.7-12.9-16.8-16.8-24.9-19.5-40.2-.9-5.3-1.6-7-3-7.3s-1.9-1.5-1.9-4.3-2.3-8.6-8.2-20.7c-7.3-14.8-8.3-17.6-8.6-23.4-.3-5.5-.1-6.7,1.3-7.2,1.7-.7,6.1,1,5.1,2-.3.3.1,1.1,1,1.7,1.2.9,1.4,2.1.9,5-.6,2.7-1,3.4-1.7,2.4s-.8-.8-.6.7c.2,1.2-.2,1.9-.9,1.7-1.8-.3-1.6.9.8,4.3,1.8,2.5,2,2.7,1.6.7-.3-1.2-.1-2.2.5-2.2s.7-.4.3-1c-.7-1.1,2.5-5,4.1-5a5.74,5.74,0,0,0,2.8-1.9c1.4-1.6,1.7-4,1.7-14,.1-6.6-.3-12.6-.7-13.2s-.7-5.2-.8-10.1c-.1-7.3-.4-9.2-1.8-10.2-1-.7-1.4-1.6-1-2,.9-.9,4.1-10.6,3.5-10.6-.9,0-4.2,4.5-4.3,5.7a2.84,2.84,0,0,1-1.2,2C121,90.8,115,99.6,115,101c0,.6.4.8,1,.5s.7.1.3,1c-.5,1.3-.7,1.4-1.4.3s-1.3-.4-1,1.4a.82.82,0,0,1-.9.8c-1.3,0-1.3-2.2.1-5.7a29.83,29.83,0,0,0,1.5-6.8c.5-5.7.6-6.5,1.4-6.5.4,0,1-1.8,1.4-4,1.1-6.8,4.5-12.2,4.6-7.3.1,1.4.6,1.1,2.2-1.1,3.4-4.6,8.7-9.6,10.1-9.6a7.55,7.55,0,0,0,3.5-2c2.4-2.3,3.6-2.6,2.7-.8-.4.7-.1.6.7-.3a14.91,14.91,0,0,1,3.3-2.7c1.8-1,1.6-1.1-1.6-1.2-5.5,0-15.6,4.9-16.7,8.2-.7,2-3.8,6.8-4.4,6.8-.9,0,.2-3.9,1.3-4.6a3.23,3.23,0,0,0,.9-2.5c0-1,.4-1.9,1-1.9s1.2-1.1,1.6-2.5,1-2.2,1.5-1.9.9.1.9-.3c0-.9,5.7-4.6,6.2-4.1.2.2,1.6-.7,3.2-2s3.4-2.2,4.1-2.2,1.3-1.1,1.3-2.5c-.1-1.9-.7-2.7-3.2-3.4-1.7-.5-2.3-1-1.3-1s1.7-.6,1.7-1.1.8-1,1.8-1.1c1.4,0,1.4-.2-.3-.9-1.1-.5-1.5-.9-.9-.9s1.4-1.5,1.8-3.1c.9-4.5,8-14.3,12.1-16.6a12.64,12.64,0,0,0,3.8-4.5,34,34,0,0,1,2.6-4.2c.4-.4,4.5-.3,9.2.3,9.9,1.3,14.8,1.3,20.9-.1a71.08,71.08,0,0,1,25.3-1c10.1,1.4,34.6,9.2,39.7,12.6s21,20.1,21,21.9a2,2,0,0,0,.9,1.8c1.2.5,12.5,16.6,14.9,21.3a33,33,0,0,1,2.5,9.5c.5,6.3,2.3,13.4,6,23.5,7,19.1,8,23,8.3,30.5a55.52,55.52,0,0,0,2.3,12.4c2,5.8,2.9,13.9,1.3,12.1a26.54,26.54,0,0,1-2-6c-1.3-5.1-3.9-9.6-6-10.3-.6-.2-1.4,1.3-1.7,3.5a43.21,43.21,0,0,1-3.1,8.6,104.17,104.17,0,0,0-5.4,13.5c-6.3,19.5-10.4,26.2-16.2,26.2-1,0-1.8.4-1.8.9,0,2.1-3.2,18.9-4.2,22.1a60.6,60.6,0,0,1-8.4,17.1c-3.2,4.4-3.4,5.2-3.4,12.4a98.9,98.9,0,0,0,1.7,16c1.6,7.9,1.6,9.1,0,22.7-.9,7.9-1.7,21-1.7,29.3,0,11.1-.5,17.3-2,23.7-1.6,7.3-3.9,21.2-4.4,26.8a9.05,9.05,0,0,1-1.6,3.6c-2.4,3.3-21.5,18.3-33,25.8-5.8,3.8-10.9,7.3-11.4,7.7s40.9.9,94.7.9H400V0H0ZM136.5,48a2.53,2.53,0,0,1-1.8,1c-.7,0-.6-.4.3-1C136.9,46.8,137.3,46.8,136.5,48Zm-3.8,1.6a2,2,0,0,1-1.9.1c-.8-.3-.5-.6.6-.6S133.1,49.3,132.7,49.6Zm-16.9,60.2c.2,2-.1,3.2-.9,3.2-.6,0-.9-.8-.6-2s.1-2.3-.4-2.6c-1.4-.8-1.1-2.6.4-2.2C114.9,106.5,115.6,108.1,115.8,109.8Z" transform="translate(0 0)"/><path d="M176.8,14.7a2,2,0,0,0,1.9-.1c.4-.3-.2-.6-1.3-.5S176,14.4,176.8,14.7Z" transform="translate(0 0)"/><path d="M223.5,19.8c1.9,1.8,7.8,3.3,8.9,2.2,1.4-1.4.8-1.6-4.9-2.5C224.3,19.1,222.9,19.2,223.5,19.8Z" transform="translate(0 0)"/><path d="M179.3,23.6c-1.8.8-3.3,1.9-3.3,2.4s-.6,1-1.4,1a2.34,2.34,0,0,0-2,1.6c-.9,2.5-.7,2.7,1,1.3a35.56,35.56,0,0,1,8.7-5c2.7-1.1,3.7-3,1.5-2.8A16.42,16.42,0,0,0,179.3,23.6Z" transform="translate(0 0)"/><path d="M233,22.9c0,.5,3.2,2.1,7.2,3.5,5.6,2.1,7.3,2.4,8,1.4s.8-.9.8.3c0,.9,1.3,2.2,2.9,2.9a15.61,15.61,0,0,1,4.7,2.9c1.1.9,3.5,2.8,5.4,4.1a26.38,26.38,0,0,1,4.7,4c.6.8,1.5,1.1,1.9.7s.2-1.2-.6-1.7-1.1-1-.7-1,.2-.6-.5-1.3-2.2-2.6-3.3-4.1-5.1-4.2-9-6c-9.9-4.7-10.6-4.9-14.6-4.7-2.1.1-4-.2-4.4-.8C234.7,21.8,233,21.7,233,22.9Z" transform="translate(0 0)"/><path d="M154.1,25.4c-.7.8-.8,1.7-.3,2s1.2-.3,1.5-1.4C155.9,23.6,155.7,23.5,154.1,25.4Z" transform="translate(0 0)"/><path d="M219,25.2c1.9.6,4.4,1.4,5.5,1.9s6.3,2.4,11.5,4.3,11.7,4.4,14.4,5.5,5.1,2,5.3,1.8-1-1-2.7-1.7-3-1.7-3-2.2-.4-.6-1-.3-1,.2-1-.4c0-2.4-22.3-10.2-28.9-10l-3.6.1Z" transform="translate(0 0)"/><path d="M148.2,29.1c-2.2,3.5-2.5,6.9-.6,6.9,1.2,0,1.5-.7,1.2-2.5-.6-2.9.6-3.3,2.1-.8.9,1.6,1,1.6,1.1-.5,0-1.2-.4-2.2-.9-2.2s-1.1-.7-1.3-1.5C149.6,27.3,149.2,27.4,148.2,29.1Z" transform="translate(0 0)"/><path d="M183.1,28.1c-1.3.5-2.2,1.2-1.9,1.4s2-.1,3.9-.9C188.8,26.9,187,26.5,183.1,28.1Z" transform="translate(0 0)"/><path d="M176,31.2c-2.6,2.8-5.3,8.8-3.9,8.8.5,0,.7,1.1.3,2.5s-.2,2.5.4,2.5c1.4,0,2.3-4.3,1-5.1-.7-.5-.3-1.6,1.2-3.6s2.1-2.2,1.6-.8c-1.8,4.6-1.7,4.9.9,2.1,3.6-4,4.1-2.8.5,1.4-3,3.5-3.8,6.4-2,7.5a1.58,1.58,0,0,1,.3,2c-.3.8,0,1.5.6,1.5s1.1-.9,1.1-1.9c0-1.3.6-1.8,1.8-1.7a2.49,2.49,0,0,0,2.4-.8c.5-.8.8-.7.8.2,0,.7.5,1,1,.7s1-.1,1,.5c0,2.2,3-1.8,3.1-4.2.1-1.9.3-1.8.9.7.5,2,.8,2.4.9,1s.3-1.7,1-.6c.6.9,1.1,1,1.5.2a2.54,2.54,0,0,1,1.7-1.1c.6,0,.7.4.4,1s-.1,1,.6,1a7.14,7.14,0,0,1,3.2,1.7c1.1,1,1.7,1.2,1.3.5s-.2-1.2.3-1.2a1.11,1.11,0,0,1,1.1,1.1c0,.6.6.9,1.4.6a1.4,1.4,0,0,1,1.9.7c.3.7,1.9,1.6,3.6,1.9a39.16,39.16,0,0,1,7.1,2.6A98.21,98.21,0,0,0,226.3,57c4,1.2,8.1,2.5,9.2,3s3.9,1.3,6.2,1.9c2.7.7,4,1.6,3.7,2.4s1,2.4,2.8,3.7a89.72,89.72,0,0,1,13,11.5c5.9,6,5.3,3.4-1.4-5.5-4.7-6.2-12.8-13-15.4-13a2.56,2.56,0,0,1-1.9-1c-.4-.7.3-.8,2.2-.4l2.8.7-2.7-2.6a14.88,14.88,0,0,0-5.9-3.2c-2.2-.5-2.8-1-1.9-1.5s0-1.1-2.6-1.5c-5.4-1-7.7-2.4-4.4-2.6,7.1-.5,14.6,2.3,24.7,9.2,2.4,1.7,4.3,2.6,4.3,2.2,0-1.3-7.8-7.6-13.4-10.7-4.7-2.7-5.8-2.9-15.1-2.9-9.1.1-9.7,0-6.5-1.2,3-1,3.2-1.3,1.5-1.8-1.1-.4-4.7-.6-7.9-.6-5,.1-6.2-.2-7.6-2.1-1.1-1.5-1.9-1.9-2.4-1.1a2.52,2.52,0,0,1-1.9,1.1c-.6,0,.4-1.1,2.3-2.5,3.7-2.7,3.4-2.9-2.2-1.6-3,.7-3.5.6-3.1-.6s.1-1.4-1.8-.8a8.82,8.82,0,0,0-3.7,2.4c-1,1.2-1.2,1.2-.6.1a23.55,23.55,0,0,1,2.2-3.3c1.9-2.1,1-2.2-3.4-.1-1.8.9-3.6,2.5-4,3.6s-.8,1.7-1.2,1.4.4-2,1.7-3.6l2.2-3h-2.3c-2-.1-1.8-.3,1-1.5,1.7-.8,3.2-1.7,3.2-2,0-.9-7.5,2.5-7.9,3.6-.2.6-1.1.3-2.1-.6-1.7-1.5-5-1.1-5,.6,0,.5-.7.9-1.5.9-1.8,0-2-1.7-.2-2.3.9-.3.9-.8.1-1.6S177.8,29.5,176,31.2Z" transform="translate(0 0)"/><path d="M166.7,36.6c-1,1.1-.9,5.4.2,5.4,1.4,0,2.2-3,1.3-4.6C167.8,36.6,167.1,36.3,166.7,36.6Z" transform="translate(0 0)"/><path d="M151,47c-1.3.8-1.2,1,.3,1,.9,0,1.7-.5,1.7-1C153,45.8,152.9,45.8,151,47Z" transform="translate(0 0)"/><path d="M173.5,47c-.3.5-.1,1,.4,1a1.1,1.1,0,0,0,1.1-1c0-.6-.2-1-.4-1S173.8,46.4,173.5,47Z" transform="translate(0 0)"/><path d="M141.5,54.1c-.4.6-.5,1.2-.2,1.5s.7-.2,1-1.1C143,52.8,142.4,52.5,141.5,54.1Z" transform="translate(0 0)"/><path d="M277.7,98.7c-.4.3.8,3.3,2.5,6.5,2.3,4.4,2.8,6.2,1.9,6.7a2.13,2.13,0,0,0-.5,2.6c.5,1.3.4,1.6-.4,1.1-2.1-1.3-1.1,9.9,1.5,17.4a27.83,27.83,0,0,1,.8,4.7c.2,3.3,2,6.3,3.7,6.3.5,0,2.1-1.2,3.6-2.8a26.92,26.92,0,0,1,4.7-3.8c1.1-.6,1.9-1.6,1.7-2.3s.4-1,1.8-.6c3,.9,2.4-1.2-.7-2.9l-2.8-1.5,2.8-.1a13.61,13.61,0,0,1,4.8,1c4.8,2.6-1-8-7.7-14a57.53,57.53,0,0,1-6.8-8C283.9,101.6,279.2,97.2,277.7,98.7Z" transform="translate(0 0)"/><path d="M278.5,107c.3.5.8,1,1.1,1s.4-.5.4-1a1,1,0,0,0-1.1-1C278.4,106,278.2,106.4,278.5,107Z" transform="translate(0 0)"/><path d="M223,138.9l-2.5,2.2,2.9-.6c1.5-.3,4.2-.9,6-1.2,3-.5,3-.5,1.1,1A7.45,7.45,0,0,1,227,142c-1,.1-1.1.3-.2.7.6.2,1.2,1.5,1.2,2.8,0,3,1.7,3.5,5.8,1.8,2.4-1,3.2-1.1,2.6-.2s.1,1,2.7.4a33.88,33.88,0,0,1,7.2-.6,13.29,13.29,0,0,0,5.5-.8c1.6-.9,1.5-1-.3-1.6a39.66,39.66,0,0,1-5-2,45.58,45.58,0,0,0-5.9-2c-1.5-.3-2.6-.8-2.4-1,.4-.4,2.9.2,12.8,3,2.2.7,2.3.6,1-.7-2.4-2.5-7.9-3.8-17.5-4.5C226.2,136.8,225.3,136.9,223,138.9Zm9.5,7.1c.3.5.1,1-.4,1a1.1,1.1,0,0,1-1.1-1c0-.6.2-1,.4-1S232.2,145.4,232.5,146Z" transform="translate(0 0)"/><path d="M156.5,139.1c-4.2,1-8.8,4.6-7.9,6.1.3.5-.2,1.5-1.1,2.2-1.6,1.2-1.4,1.4,1.9,1.9,4.8.8,9.6-.9,9-3.1-.3-.9.1-.7.7.5,1.3,2.5,3.3,2.8,7.6,1.2,1.9-.7,2.9-.7,3.1,0,.6,1.8,3,1.2,3.7-.9.9-2.8-.9-4.7-5.1-5.4-1.9-.4-3.2-1.1-2.9-1.5.6-1.1,6,.1,10.2,2.2,3.7,1.9,4.3,2.1,4.3.8,0-.5-1.9-1.9-4.3-3C171,137.8,163.6,137.5,156.5,139.1Z" transform="translate(0 0)"/><path d="M301.9,141.8a27.9,27.9,0,0,1-2.6,4c-1.5,1.6-1.7,4.6-.3,3.7,1.1-.7,5.2-9.6,4.7-10.2C303.5,139.2,302.7,140.2,301.9,141.8Z" transform="translate(0 0)"/><path d="M176,146.4c0,1.6,3.8,4.2,4.7,3.2.7-.7-.5-2.4-2.8-3.6C176.4,145.2,176,145.3,176,146.4Z" transform="translate(0 0)"/><path d="M185,145.9a1.9,1.9,0,0,0,1,1.6c.6.3.7-.1.4-.9C185.7,144.8,185,144.5,185,145.9Z" transform="translate(0 0)"/><path d="M221,147c-1.2.8-1.1,1,.8,1,1.2,0,2.2-.5,2.2-1C224,145.7,222.9,145.7,221,147Z" transform="translate(0 0)"/><path d="M209.2,189.5c-1.3,1.6-.5,1.9,2.2.9.9-.3,1.6-1,1.6-1.5C213,187.5,210.6,187.9,209.2,189.5Z" transform="translate(0 0)"/><path d="M186.5,191a3.11,3.11,0,0,0,2.3,1c1.5,0,1.5-.2.2-1C187,189.7,185.7,189.7,186.5,191Z" transform="translate(0 0)"/><path d="M233.2,206.9a29.86,29.86,0,0,0-2,2.3c-1.1,1.4-1.1,1.6.7,1.1,1.2-.3,2.1-.1,2.1.6,0,1.7,1.7,1.3,4.6-1.3l2.8-2.3-3.7-.5C235.6,206.6,233.6,206.6,233.2,206.9Z" transform="translate(0 0)"/><path d="M166.6,208.9c-.3.5,1.6,2.5,4.2,4.6l4.7,3.7.3-3.1c.2-2.1.7-2.8,1.8-2.4.8.3,1.4,0,1.4-.6s-.9-1.1-1.9-1.1a3.5,3.5,0,0,1-2.6-1C173.7,207.8,167.3,207.7,166.6,208.9Z" transform="translate(0 0)"/></svg>